<svg fill="#000000" xmlns="http://www.w3.org/2000/svg"  viewBox="0 0 30 30" width="120px" height="120px"><path d="M 5 5 A 1.0001 1.0001 0 0 0 4.78125 5.0214844 C 3.7808601 5.1318811 3 5.9700688 3 7 L 3 23 C 3 24.030595 3.7818815 24.868998 4.7832031 24.978516 A 1.0001 1.0001 0 0 0 5 25 L 17 25 L 25 25 C 26.093063 25 27 24.093063 27 23 L 27 7 C 27 5.9069372 26.093063 5 25 5 L 16 5 L 5 5 z M 14.888672 7 L 25 7 L 25 23 L 16.697266 23 C 16.603409 22.358906 16.508612 21.714695 16.408203 20.917969 C 15.958203 20.968969 15.49 21 15 21 C 10.808 21 8.007625 18.882969 7.890625 18.792969 C 7.452625 18.455969 7.3700313 17.827625 7.7070312 17.390625 C 8.0430312 16.952625 8.6694219 16.870078 9.1074219 17.205078 C 9.1524219 17.238078 11.53 19 15 19 C 15.412 19 15.803641 18.972688 16.181641 18.929688 C 16.074641 17.852688 16 16.815 16 16 L 13.685547 16 C 13.309547 16 12.998766 15.685594 13.009766 15.308594 C 13.117156 11.534421 14.082118 8.7333804 14.888672 7 z M 16.181641 18.929688 C 16.247641 19.591687 16.326203 20.266969 16.408203 20.917969 C 19.808203 20.530969 22.005375 18.872969 22.109375 18.792969 C 22.546375 18.455969 22.629969 17.827625 22.292969 17.390625 C 21.955969 16.951625 21.327625 16.871031 20.890625 17.207031 C 20.870625 17.223031 19.032641 18.605688 16.181641 18.929688 z M 20.984375 9.9863281 A 1.0001 1.0001 0 0 0 20 11 L 20 12 A 1.0001 1.0001 0 1 0 22 12 L 22 11 A 1.0001 1.0001 0 0 0 20.984375 9.9863281 z M 9 10 C 9.552 10 10 10.447 10 11 L 10 12 C 10 12.553 9.552 13 9 13 C 8.448 13 8 12.553 8 12 L 8 11 C 8 10.447 8.448 10 9 10 z"/></svg>