<?xml version="1.0" ?><svg id="Layer_1" style="enable-background:new 0 0 512 512;" version="1.1" viewBox="0 0 512 512" xml:space="preserve" xmlns="http://www.w3.org/2000/svg" xmlns:xlink="http://www.w3.org/1999/xlink"><style type="text/css">
	.st0{fill:#2B79C2;}
	.st1{fill:#3B4652;}
	.st2{fill:#333333;}
</style><g><g><path class="st1" d="M432.1,209.1c-4.4,0-8-3.6-8-8C424.1,108.4,348.7,33,256,33c-24.8,0-48.7,5.3-71,15.7    c-4,1.9-8.8,0.1-10.6-3.9c-1.9-4-0.1-8.8,3.9-10.6C202.7,22.8,228.9,17,256,17c101.5,0,184.1,82.6,184.1,184.1    C440.1,205.5,436.5,209.1,432.1,209.1z"/></g><g><path class="st1" d="M106.8,412.3c-2.7,0-5.3-1.3-6.8-3.7c-18.4-29.3-28.1-63-28.1-97.7V201.1c0-46.2,17.2-90.4,48.6-124.5    c3-3.3,8.1-3.5,11.3-0.5c3.3,3,3.5,8.1,0.5,11.3c-28.6,31.1-44.4,71.5-44.4,113.6v109.8c0,31.6,8.9,62.5,25.7,89.2    c2.4,3.7,1.2,8.7-2.5,11C109.7,411.9,108.3,412.3,106.8,412.3z"/></g><g><path class="st1" d="M256,495c-39.7,0-77.5-12.5-109.4-36.1c-3.5-2.6-4.3-7.6-1.7-11.2c2.6-3.5,7.6-4.3,11.2-1.7    c29.1,21.6,63.6,33,99.9,33c92.7,0,168.1-75.4,168.1-168.1c0-4.4,3.6-8,8-8s8,3.6,8,8C440.1,412.4,357.5,495,256,495z"/></g><g><path class="st1" d="M116.3,301.4c-4.4,0-8-3.6-8-8v-92.3c0-81.4,66.2-147.7,147.7-147.7c4.4,0,8,3.6,8,8s-3.6,8-8,8    c-72.6,0-131.7,59.1-131.7,131.7v92.3C124.3,297.8,120.8,301.4,116.3,301.4z"/></g><g><path class="st1" d="M256,458.6c-65.7,0-124.2-44.2-142.1-107.4c-1.2-4.3,1.3-8.7,5.5-9.9c4.3-1.2,8.7,1.3,9.9,5.5    c16,56.4,68.1,95.8,126.7,95.8c4.4,0,8,3.6,8,8S260.4,458.6,256,458.6z"/></g><g><path class="st1" d="M341.2,429.5c-2.4,0-4.8-1.1-6.3-3.1c-2.7-3.5-2.1-8.5,1.4-11.2c32.6-25.2,51.4-63.2,51.4-104.3V201.1    c0-35.8-14.1-69.2-39.8-94.3c-3.2-3.1-3.2-8.1-0.1-11.3c3.1-3.2,8.1-3.2,11.3-0.1c28.8,28.1,44.7,65.6,44.7,105.7v109.8    c0,46.1-21,88.7-57.6,116.9C344.6,429,342.9,429.5,341.2,429.5z"/></g><g><path class="st1" d="M152.8,276.5c-4.4,0-8-3.6-8-8v-67.4c0-61.3,49.9-111.2,111.2-111.2s111.2,49.9,111.2,111.2c0,4.4-3.6,8-8,8    s-8-3.6-8-8c0-52.5-42.7-95.2-95.2-95.2s-95.2,42.7-95.2,95.2v67.4C160.8,272.9,157.2,276.5,152.8,276.5z"/></g><g><path class="st1" d="M256,422.2c-61.3,0-111.2-49.9-111.2-111.2c0-4.4,3.6-8,8-8s8,3.6,8,8c0,52.5,42.7,95.2,95.2,95.2    s95.2-42.7,95.2-95.2V256c0-4.4,3.6-8,8-8s8,3.6,8,8v54.9C367.2,372.3,317.3,422.2,256,422.2z"/></g><path class="st0" d="M302.7,238.5V180c0-12.5-4.9-24.2-13.7-33c-8.8-8.8-20.5-13.7-33-13.7c-25.7,0-46.7,20.9-46.7,46.7v58.5   c-16.9,13.6-27.7,34.5-27.7,57.9c0,41.1,33.3,74.4,74.4,74.4c41.1,0,74.4-33.3,74.4-74.4C330.4,273,319.6,252.1,302.7,238.5z    M256,149.3c8.2,0,15.9,3.2,21.7,9c5.8,5.8,9,13.5,9,21.7v48.6c-9.4-4.2-19.8-6.6-30.7-6.6s-21.3,2.4-30.7,6.6V180   C225.3,163.1,239.1,149.3,256,149.3z M274.7,341.3h-37.5c-3.1,0-5.3-3.2-4.1-6.1l12.6-31.3c-10.5-4.3-17.8-14.9-17-27.1   c0.8-13.6,11.9-24.7,25.5-25.5c15.9-1,29.1,11.6,29.1,27.3c0,11.5-7.1,21.3-17.1,25.3l12.6,31.3C280,338.2,277.9,341.3,274.7,341.3   z"/></g></svg>