<?xml version="1.0" ?><svg id="Layer_1" style="enable-background:new 0 0 512 512;" version="1.1" viewBox="0 0 512 512" xml:space="preserve" xmlns="http://www.w3.org/2000/svg" xmlns:xlink="http://www.w3.org/1999/xlink"><style type="text/css">
	.st0{fill:#2B79C2;}
	.st1{fill:#3B4652;}
	.st2{fill:#333333;}
</style><g><path class="st1" d="M465.7,261c2.3-2.9,2.3-7,0-10c-1-1.2-23.8-29.7-60.9-58.7c-49.6-38.6-101-59-148.8-59s-99.2,20.4-148.8,59   c-37.1,28.9-60,57.5-60.9,58.7c-2.3,2.9-2.3,7,0,10c1,1.2,23.8,29.7,60.9,58.7c49.6,38.6,101,59,148.8,59s99.2-20.4,148.8-59   C441.9,290.7,464.8,262.2,465.7,261z M449,256c-14.2,16.3-62.9,68.3-126.2,93.2c29-20.8,47.8-54.8,47.8-93.2   c0-38.3-18.8-72.3-47.7-93.1c28.2,11.1,53,27.3,71.7,41.8C421.5,225.6,440.9,246.7,449,256z M293.1,310   c-13.3,0-24.1-10.8-24.1-24.1s10.8-24.1,24.1-24.1s24.1,10.8,24.1,24.1S306.5,310,293.1,310z M221.9,191.2   c18.8,0,34.1,15.3,34.1,34.1s-15.3,34.1-34.1,34.1s-34.1-15.3-34.1-34.1S203.1,191.2,221.9,191.2z M63,256   c14.2-16.3,62.9-68.3,126.2-93.2c-29,20.8-47.8,54.8-47.8,93.2c0,38.3,18.8,72.3,47.7,93.1c-28.2-11.1-53-27.3-71.7-41.8   C90.5,286.4,71.1,265.3,63,256z"/><path class="st0" d="M112.3,426.8H49V383c0-4.4-3.6-8-8-8s-8,3.6-8,8v51.8c0,4.4,3.6,8,8,8h71.3c4.4,0,8-3.6,8-8   S116.7,426.8,112.3,426.8z"/><path class="st0" d="M41,137c4.4,0,8-3.6,8-8V85.2h63.3c4.4,0,8-3.6,8-8s-3.6-8-8-8H41c-4.4,0-8,3.6-8,8V129   C33,133.4,36.6,137,41,137z"/><path class="st0" d="M471,375c-4.4,0-8,3.6-8,8v43.8h-60.8c-4.4,0-8,3.6-8,8s3.6,8,8,8H471c4.4,0,8-3.6,8-8V383   C479,378.6,475.4,375,471,375z"/><path class="st0" d="M471,69.2h-68.8c-4.4,0-8,3.6-8,8s3.6,8,8,8H463V129c0,4.4,3.6,8,8,8s8-3.6,8-8V77.2   C479,72.8,475.4,69.2,471,69.2z"/></g></svg>