<?xml version="1.0" ?><svg id="Layer_1" style="enable-background:new 0 0 512 512;" version="1.1" viewBox="0 0 512 512" xml:space="preserve" xmlns="http://www.w3.org/2000/svg" xmlns:xlink="http://www.w3.org/1999/xlink"><style type="text/css">
	.st0{fill:#2B79C2;}
	.st1{fill:#3B4652;}
	.st2{fill:#333333;}
</style><g><path class="st1" d="M274.3,127.2h-45.2c-5.3,0-9.9,3.8-11,9c-0.1,0.7-0.2,1.4-0.2,2.1V187h67.6v-48.7   C285.5,132.2,280.5,127.2,274.3,127.2z"/><path class="st0" d="M251.7,216c-10.6,0-19.2,8.6-19.2,19.2c0,0.5,0,1,0.1,1.5c0,0.2,0,0.4,0,0.5c0,0.3,0.1,0.7,0.1,1   c1,6.4,5.2,11.8,10.9,14.4v14.5c0,4.4,3.6,8,8,8s8-3.6,8-8v-14.6c6-2.8,10.3-8.5,11.1-15.4c0-0.2,0-0.4,0-0.5   c0.1-0.5,0.1-1,0.1-1.5C270.9,224.6,262.3,216,251.7,216z"/><path class="st1" d="M455.8,418.3v-33c0-4.4-3.6-8-8-8h-91v-39.2h23.7c48.5,0,87.8-39.3,87.8-87.8c0-42-29.6-77.2-69-85.8   c0.1-1.5,0.2-2.9,0.2-4.4c0-29.5-23.9-53.4-53.4-53.4c-6.7,0-13.2,1.2-19.1,3.5c0-1.2,0.1-2.3,0.1-3.5c0-43.3-35.1-78.3-78.3-78.3   c-39.1,0-71.5,28.6-77.4,66.1c-4.6-0.5-9.3-0.8-14-0.8c-67.5,0-122.2,54.7-122.2,122.2c0,66.8,53.6,121,120.1,122.2v39.2h-91   c-4.4,0-8,3.6-8,8v33c-14.4,3.6-25.1,16.6-25.1,32.1c0,18.3,14.9,33.1,33.1,33.1s33.1-14.9,33.1-33.1c0-15.5-10.7-28.6-25.1-32.1   v-25h91c4.4,0,8-3.6,8-8v-47.2H184h16.4v80.1c-14.4,3.6-25.1,16.6-25.1,32.1c0,18.3,14.9,33.1,33.1,33.1s33.1-14.9,33.1-33.1   c0-15.5-10.7-28.6-25.1-32.1v-80.1h41.8v40.3c0,4.4,3.6,8,8,8h35.7v31.8c-14.4,3.6-25.1,16.6-25.1,32.1c0,18.3,14.9,33.1,33.1,33.1   s33.1-14.9,33.1-33.1c0-15.5-10.7-28.6-25.1-32.1v-39.8c0-4.4-3.6-8-8-8h-35.7v-32.3h64.4h2.2v47.2c0,4.4,3.6,8,8,8h91v25   c-14.4,3.6-25.1,16.6-25.1,32.1c0,18.3,14.9,33.1,33.1,33.1s33.1-14.9,33.1-33.1C480.9,434.9,470.2,421.9,455.8,418.3z    M315.1,282.2c0,7.7-6.2,13.9-13.9,13.9h-99c-7.7,0-13.9-6.2-13.9-13.9v-81.3c0-7.6,6.1-13.8,13.6-13.9v-48.7   c0-1.7,0.2-3.5,0.5-5.2c2.5-12.7,13.7-22,26.7-22h45.2c15,0,27.2,12.2,27.2,27.2V187c7.6,0.2,13.6,6.3,13.6,13.9V282.2z"/></g></svg>