<?xml version="1.0" ?><svg id="Layer_1" style="enable-background:new 0 0 512 512;" version="1.1" viewBox="0 0 512 512" xml:space="preserve" xmlns="http://www.w3.org/2000/svg" xmlns:xlink="http://www.w3.org/1999/xlink"><style type="text/css">
	.st0{fill:#2B79C2;}
	.st1{fill:#3B4652;}
	.st2{fill:#333333;}
</style><g><path class="st0" d="M356,363H156c-4.2,0-7.5,3.4-7.5,7.5v34.9c0,4.2,3.4,7.5,7.5,7.5H356c4.2,0,7.5-3.4,7.5-7.5v-34.9   C363.6,366.4,360.2,363,356,363z"/><path class="st1" d="M339.8,347c5.1,0,9.3-4.1,9.3-9.3v-65.5c0-5.1-4.1-9.3-9.3-9.3H172.3c-5.1,0-9.3,4.1-9.3,9.3v65.5   c0,5.1,4.1,9.3,9.3,9.3H339.8z M240.7,295.9c0.5-7.7,6.8-14,14.6-14.4c8.8-0.4,16.1,6.6,16.1,15.3c0,4.2-1.7,8.1-4.5,10.9l7.3,20.8   h-36.3l7.3-20.8C242.1,304.7,240.4,300.5,240.7,295.9z"/><path class="st0" d="M356,197h-22.7v-50c0-42.6-34.7-77.3-77.3-77.3s-77.3,34.7-77.3,77.3v50H156c-4.2,0-7.5,3.4-7.5,7.5v34.9   c0,4.2,3.4,7.5,7.5,7.5H356c4.2,0,7.5-3.4,7.5-7.5v-34.9C363.6,200.4,360.2,197,356,197z M317.3,197H194.7v-50   c0-33.8,27.5-61.3,61.3-61.3s61.3,27.5,61.3,61.3V197z"/><path class="st1" d="M389.5,230H420c4.4,0,8-3.6,8-8V95h10.3c3.3,9.7,12.6,16.8,23.4,16.8c13.6,0,24.8-11.1,24.8-24.8   s-11.1-24.8-24.8-24.8c-10.8,0-20.1,7-23.4,16.8H420c-4.4,0-8,3.6-8,8v127h-22.5c-4.4,0-8,3.6-8,8S385.1,230,389.5,230z"/><path class="st1" d="M461.7,254.2c-10.8,0-20.1,7-23.4,16.8h-15.8c-4.4,0-8,3.6-8,8v31.3h-34.3c-4.4,0-8,3.6-8,8s3.6,8,8,8h42.3   c4.4,0,8-3.6,8-8v-31.3h7.8c3.3,9.7,12.6,16.8,23.4,16.8c13.6,0,24.8-11.1,24.8-24.8S475.4,254.2,461.7,254.2z"/><path class="st1" d="M461.7,400.3c-10.8,0-20.1,7-23.4,16.8h-6.1v-29c0-4.4-3.6-8-8-8H393c-4.4,0-8,3.6-8,8s3.6,8,8,8h23.3v29   c0,4.4,3.6,8,8,8h14.1c3.3,9.7,12.6,16.8,23.4,16.8c13.6,0,24.8-11.1,24.8-24.8S475.4,400.3,461.7,400.3z"/><path class="st1" d="M50.3,111.8c10.8,0,20.1-7,23.4-16.8H84v127c0,4.4,3.6,8,8,8h30.5c4.4,0,8-3.6,8-8s-3.6-8-8-8H100V87   c0-4.4-3.6-8-8-8H73.7c-3.3-9.7-12.6-16.8-23.4-16.8c-13.6,0-24.8,11.1-24.8,24.8S36.6,111.8,50.3,111.8z"/><path class="st1" d="M131.9,310.3H97.5v-31.3c0-4.4-3.6-8-8-8H73.7c-3.3-9.7-12.6-16.8-23.4-16.8c-13.6,0-24.8,11.1-24.8,24.8   s11.1,24.8,24.8,24.8c10.8,0,20.1-7,23.4-16.8h7.8v31.3c0,4.4,3.6,8,8,8h42.3c4.4,0,8-3.6,8-8S136.3,310.3,131.9,310.3z"/><path class="st1" d="M119,380H87.8c-4.4,0-8,3.6-8,8v29h-6.1c-3.3-9.7-12.6-16.8-23.4-16.8c-13.6,0-24.8,11.1-24.8,24.8   s11.1,24.8,24.8,24.8c10.8,0,20.1-7,23.4-16.8h14.1c4.4,0,8-3.6,8-8v-29H119c4.4,0,8-3.6,8-8S123.4,380,119,380z"/></g></svg>